<svg width="26" height="32" viewBox="0 0 26 32" fill="none" xmlns="http://www.w3.org/2000/svg">
<path d="M25.0445 8.14961L17.4789 0.580469C17.268 0.369531 16.9797 0.25 16.6809 0.25H1.75C1.12773 0.25 0.625 0.752734 0.625 1.375V30.625C0.625 31.2473 1.12773 31.75 1.75 31.75H24.25C24.8723 31.75 25.375 31.2473 25.375 30.625V8.94414C25.375 8.64531 25.2555 8.36055 25.0445 8.14961ZM9.0625 12.1328C9.83945 12.1328 10.4688 12.7621 10.4688 13.5391C10.4688 14.316 9.83945 14.9453 9.0625 14.9453C8.28555 14.9453 7.65625 14.316 7.65625 13.5391C7.65625 12.7621 8.28555 12.1328 9.0625 12.1328ZM19.4688 22.4688H6.53125C6.2957 22.4688 6.16563 22.198 6.30977 22.0152L9.81836 17.5434C9.84467 17.5097 9.87828 17.4826 9.91666 17.4639C9.95503 17.4452 9.99716 17.4354 10.0398 17.4354C10.0825 17.4354 10.1247 17.4452 10.163 17.4639C10.2014 17.4826 10.235 17.5097 10.2613 17.5434L11.7063 19.3855L14.4414 15.898C14.4677 15.8644 14.5013 15.8372 14.5397 15.8185C14.5781 15.7999 14.6202 15.7901 14.6629 15.7901C14.7056 15.7901 14.7477 15.7999 14.7861 15.8185C14.8245 15.8372 14.8581 15.8644 14.8844 15.898L19.6832 22.0152C19.8344 22.198 19.7008 22.4688 19.4688 22.4688ZM16.1641 9.46094V2.84453L22.7805 9.46094H16.1641Z" fill="#8C8C8C"/>
</svg>
