<svg width="20" height="17" viewBox="0 0 20 17" fill="none" xmlns="http://www.w3.org/2000/svg">
<path d="M4.00002 4.80001C4.00002 4.64088 4.06324 4.48826 4.17576 4.37574C4.28828 4.26322 4.44089 4.20001 4.60002 4.20001H13C13.1592 4.20001 13.3118 4.26322 13.4243 4.37574C13.5368 4.48826 13.6 4.64088 13.6 4.80001C13.6 4.95914 13.5368 5.11175 13.4243 5.22427C13.3118 5.33679 13.1592 5.40001 13 5.40001H4.60002C4.44089 5.40001 4.28828 5.33679 4.17576 5.22427C4.06324 5.11175 4.00002 4.95914 4.00002 4.80001ZM10.6 7.80001C10.4409 7.80001 10.2883 7.86322 10.1758 7.97574C10.0632 8.08826 10 8.24088 10 8.40001C10 8.55914 10.0632 8.71175 10.1758 8.82427C10.2883 8.93679 10.4409 9.00001 10.6 9.00001H13C13.1592 9.00001 13.3118 8.93679 13.4243 8.82427C13.5368 8.71175 13.6 8.55914 13.6 8.40001C13.6 8.24088 13.5368 8.08826 13.4243 7.97574C13.3118 7.86322 13.1592 7.80001 13 7.80001H10.6ZM10 12C10 11.8409 10.0632 11.6883 10.1758 11.5757C10.2883 11.4632 10.4409 11.4 10.6 11.4H13C13.1592 11.4 13.3118 11.4632 13.4243 11.5757C13.5368 11.6883 13.6 11.8409 13.6 12C13.6 12.1591 13.5368 12.3117 13.4243 12.4243C13.3118 12.5368 13.1592 12.6 13 12.6H10.6C10.4409 12.6 10.2883 12.5368 10.1758 12.4243C10.0632 12.3117 10 12.1591 10 12ZM4.60002 7.80001C4.44089 7.80001 4.28828 7.86322 4.17576 7.97574C4.06324 8.08826 4.00002 8.24088 4.00002 8.40001V12C4.00002 12.1591 4.06324 12.3117 4.17576 12.4243C4.28828 12.5368 4.44089 12.6 4.60002 12.6H8.20002C8.35915 12.6 8.51177 12.5368 8.62429 12.4243C8.73681 12.3117 8.80002 12.1591 8.80002 12V8.40001C8.80002 8.24088 8.73681 8.08826 8.62429 7.97574C8.51177 7.86322 8.35915 7.80001 8.20002 7.80001H4.60002ZM5.20002 11.4V9.00001H7.60002V11.4H5.20002ZM0.400024 3.00001C0.400024 2.36349 0.652881 1.75304 1.10297 1.30295C1.55306 0.852862 2.1635 0.600006 2.80002 0.600006H14.8C15.4365 0.600006 16.047 0.852862 16.4971 1.30295C16.9472 1.75304 17.2 2.36349 17.2 3.00001V4.20001C17.8365 4.20001 18.447 4.45286 18.8971 4.90295C19.3472 5.35304 19.6 5.96349 19.6 6.60001V13.2C19.6 13.9957 19.284 14.7587 18.7213 15.3213C18.1587 15.8839 17.3957 16.2 16.6 16.2H3.40002C2.60437 16.2 1.84131 15.8839 1.2787 15.3213C0.716095 14.7587 0.400024 13.9957 0.400024 13.2V3.00001ZM16 3.00001C16 2.68175 15.8736 2.37652 15.6486 2.15148C15.4235 1.92643 15.1183 1.80001 14.8 1.80001H2.80002C2.48176 1.80001 2.17654 1.92643 1.9515 2.15148C1.72645 2.37652 1.60002 2.68175 1.60002 3.00001V13.2C1.60002 13.6774 1.78967 14.1352 2.12723 14.4728C2.4648 14.8104 2.92263 15 3.40002 15H16.6C17.0774 15 17.5352 14.8104 17.8728 14.4728C18.2104 14.1352 18.4 13.6774 18.4 13.2V6.60001C18.4 6.28175 18.2736 5.97652 18.0486 5.75148C17.8235 5.52643 17.5183 5.40001 17.2 5.40001V13.2C17.2 13.3591 17.1368 13.5117 17.0243 13.6243C16.9118 13.7368 16.7592 13.8 16.6 13.8C16.4409 13.8 16.2883 13.7368 16.1758 13.6243C16.0632 13.5117 16 13.3591 16 13.2V3.00001Z" fill="#232323"/>
</svg>
