<svg width="48" height="48" viewBox="0 0 48 48" fill="none" xmlns="http://www.w3.org/2000/svg">
<path d="M9.27945 38.9768L38.9768 9.27945M45 24C45 35.598 35.598 45 24 45C12.402 45 3 35.598 3 24C3 12.402 12.402 3 24 3C35.598 3 45 12.402 45 24Z" stroke="#739F68" stroke-width="2"/>
<path d="M12.75 23.25V28.875H28.875V23.25H12.75ZM27.375 27.375H14.25V24.75H27.375V27.375ZM30 23.25H31.5V28.875H30V23.25ZM32.625 23.25H34.125V28.875H32.625V23.25ZM30.0669 20.1234C29.8871 19.8521 29.8005 19.5297 29.8201 19.2048C29.8397 18.8799 29.9645 18.5703 30.1757 18.3226C30.6122 17.8149 30.8655 17.1754 30.8951 16.5065C30.9247 15.8376 30.7288 15.1782 30.3388 14.634L30.0645 14.25H28.35L28.2647 14.3109L29.1181 15.5058C29.3127 15.7773 29.4105 16.1064 29.3958 16.4401C29.381 16.7739 29.2546 17.093 29.0368 17.3463C28.6136 17.8427 28.3635 18.4633 28.3242 19.1144C28.2849 19.7655 28.4585 20.4117 28.8188 20.9554L29.0986 21.375H30.9014L30.0669 20.1234ZM33.4419 20.1234C33.2621 19.8521 33.1755 19.5297 33.1951 19.2048C33.2147 18.8799 33.3395 18.5703 33.5507 18.3226C33.9872 17.8149 34.2405 17.1754 34.2701 16.5065C34.2997 15.8376 34.1038 15.1782 33.7138 14.634L33.4395 14.25H31.725L31.6397 14.3109L32.4931 15.5058C32.6877 15.7773 32.7855 16.1064 32.7708 16.4401C32.756 16.7739 32.6296 17.093 32.4118 17.3463C31.9886 17.8427 31.7385 18.4633 31.6992 19.1144C31.6599 19.7655 31.8335 20.4117 32.1938 20.9554L32.4736 21.375H34.2764L33.4419 20.1234Z" fill="#739F68"/>
</svg>
