<svg width="48" height="48" viewBox="0 0 48 48" fill="none" xmlns="http://www.w3.org/2000/svg">
<path d="M23.5014 3.02516C16.2333 2.56105 12.9021 8.63313 12.145 11.7272C8.92735 12.114 2.83275 14.86 4.19552 22.7498C5.55828 30.6397 12.3343 30.6783 15.5519 29.7114C16.0062 33.4243 18.7695 34.7393 20.0945 34.9327C18.959 36.6731 18.959 46.5354 29.1798 44.795C37.3564 43.4026 36.5612 36.8664 36.5612 34.9327C40.6495 34.0044 41.293 30.2916 41.1038 28.5512C42.618 27.1975 45.1921 23.2139 43.375 18.1087C41.558 13.0035 36.1827 12.5008 33.7221 12.8875C33.3436 9.79344 30.7695 3.48927 23.5014 3.02516Z" stroke="#739F68" stroke-width="2"/>
</svg>
