<svg width="48" height="48" viewBox="0 0 48 48" fill="none" xmlns="http://www.w3.org/2000/svg">
<path d="M4 17.4999H17.5C18.6667 17.4999 21 16.7999 21 13.9999C21 10.4999 18.6821 10.0023 17.1821 10.0023C15.6821 10.0023 13.6821 11.0023 13.6821 13.5023M4 22.4999H36C38.5 22.4999 43.5 20.9999 43.5 14.9999C43.5 7.49991 37 6.99991 35.5 6.99991C34 6.99991 28 7.49991 28 14.9999M4 27.9999H31C33 27.9999 37 29.1999 37 33.9999C37 39.9999 32.5 40.4999 31.5 40.4999C30.5 40.4999 24.5 40.4999 24.5 33.9999" stroke="#739F68" stroke-width="2" stroke-linecap="round" stroke-linejoin="round"/>
</svg>
