<svg width="132" height="42" viewBox="0 0 132 42" fill="none" xmlns="http://www.w3.org/2000/svg">
<path d="M48.0854 40.271V32.3373C48.0854 31.753 47.9355 31.2891 47.6299 30.9337C47.3243 30.5783 46.9647 30.4036 46.5572 30.4036C46.0059 30.4036 45.3647 30.7951 44.6336 31.5843V28.759C44.6336 28.5602 44.5437 28.4578 44.3699 28.4578H41.9669C41.847 28.4578 41.7871 28.518 41.7871 28.6325V29.2228C41.7871 29.3433 41.841 29.4217 41.9489 29.4458C42.1527 29.4879 42.2545 29.6988 42.2545 30.0722V40.2771C42.2545 40.4819 42.1826 40.6445 42.0448 40.759C41.9489 40.8433 41.889 40.9156 41.871 40.9819C41.847 41.0482 41.841 41.1988 41.841 41.4337C41.841 41.6265 41.859 41.753 41.901 41.8012C41.9369 41.8554 42.0148 41.8795 42.1227 41.8795H44.7115C44.8793 41.8795 44.9692 41.8554 44.9932 41.8012C45.0111 41.7469 45.0231 41.5301 45.0231 41.1506C45.0231 41.0482 44.9572 40.9156 44.8314 40.765C44.7055 40.6204 44.6396 40.4578 44.6396 40.2771V32.6024C44.8973 32.3494 45.119 32.2168 45.2988 32.2168C45.4127 32.2168 45.5145 32.2771 45.5984 32.3976C45.6823 32.518 45.7243 32.6506 45.7243 32.7951V40.5361C45.7243 40.9036 45.7902 41.2168 45.922 41.4819C46.0539 41.7469 46.2037 41.8795 46.3595 41.8795H48.1812C48.3011 41.8795 48.379 41.8433 48.409 41.771C48.4449 41.6988 48.4569 41.5301 48.4569 41.265C48.4569 41.0241 48.385 40.8433 48.2412 40.7168C48.1333 40.6265 48.0854 40.4819 48.0854 40.271Z" fill="#CAAC82"/>
<path d="M52.9095 30.4036C51.9687 30.4036 51.2136 30.8976 50.6383 31.8855C50.063 32.8735 49.7754 34.3253 49.7754 36.253C49.7754 37.6024 49.9012 38.6627 50.1529 39.4398C50.4046 40.2169 50.7582 40.8374 51.2196 41.3012C51.681 41.7651 52.2264 42 52.8556 42C53.7665 42 54.5275 41.494 55.1388 40.4759C55.75 39.4578 56.0557 37.9578 56.0557 35.9699C56.0557 34.1265 55.756 32.741 55.1568 31.8072C54.5515 30.8675 53.8024 30.4036 52.9095 30.4036ZM53.4249 39.6325C53.4249 40.4699 53.2391 40.8855 52.8616 40.8855C52.52 40.8855 52.3522 40.4699 52.3522 39.6325V32.7229C52.3522 31.8795 52.538 31.4578 52.9095 31.4578C53.2511 31.4578 53.4249 31.8012 53.4249 32.488V39.6325Z" fill="#CAAC82"/>
<path d="M60.6586 30.4036C59.7177 30.4036 58.9626 30.8976 58.3874 31.8855C57.8121 32.8735 57.5244 34.3253 57.5244 36.253C57.5244 37.6024 57.6503 38.6627 57.902 39.4398C58.1536 40.2169 58.5072 40.8374 58.9686 41.3012C59.4301 41.7651 59.9754 42 60.6046 42C61.5155 42 62.2766 41.494 62.8878 40.4759C63.4991 39.4578 63.8047 37.9578 63.8047 35.9699C63.8047 34.1265 63.5051 32.741 62.9058 31.8072C62.3005 30.8675 61.5575 30.4036 60.6586 30.4036ZM61.1739 39.6325C61.1739 40.4699 60.9882 40.8855 60.6106 40.8855C60.269 40.8855 60.1013 40.4699 60.1013 39.6325V32.7229C60.1013 31.8795 60.287 31.4578 60.6586 31.4578C61.0001 31.4578 61.1739 31.8012 61.1739 32.488V39.6325Z" fill="#CAAC82"/>
<path d="M71.5764 40.2831L70.0543 33.4397L70.5516 32.2108C70.6355 32.006 70.7854 31.8433 71.0011 31.7228C71.1389 31.6385 71.2288 31.5542 71.2708 31.4638C71.3127 31.3734 71.3307 31.2048 71.3307 30.9578C71.3307 30.6807 71.2768 30.5361 71.1689 30.518H69.1973C69.0775 30.518 68.9996 30.5481 68.9516 30.6024C68.9097 30.6626 68.8857 30.8192 68.8857 31.0722C68.8857 31.277 68.9037 31.4156 68.9336 31.4819C68.9696 31.5481 69.0295 31.6024 69.1314 31.6506C69.3531 31.753 69.467 31.8975 69.467 32.0843C69.467 32.1626 69.425 32.3132 69.3411 32.5301L68.0288 36.0301V28.8253C68.0288 28.6626 68.0168 28.5662 67.9868 28.5241C67.9568 28.4819 67.8849 28.4638 67.7651 28.4638H65.4999C65.368 28.4638 65.2961 28.4939 65.2841 28.5481C65.2722 28.6024 65.2662 28.8132 65.2662 29.1746C65.2662 29.3493 65.2721 29.4578 65.2781 29.5C65.2841 29.5421 65.3201 29.5963 65.38 29.6506C65.5658 29.8072 65.6617 30.0602 65.6617 30.4156V40.3734C65.6617 40.4698 65.6557 40.5361 65.6437 40.5843C65.6317 40.6264 65.5658 40.7048 65.4519 40.8072C65.3141 40.9276 65.2422 41.0361 65.2422 41.1325V41.524C65.2422 41.771 65.3261 41.8975 65.4999 41.8975H68.0887C68.2685 41.8975 68.3584 41.7951 68.3584 41.5903V41.1505C68.3584 40.9939 68.3104 40.8855 68.2145 40.8252C68.0887 40.7409 68.0288 40.6265 68.0288 40.4758V38.2469L68.5321 37.0903L69.3471 41.3493C69.4191 41.7168 69.5748 41.8975 69.8205 41.8975H71.7442C71.942 41.8975 72.0378 41.7951 72.0378 41.5903V41.1505C72.0378 40.9879 71.9839 40.8734 71.882 40.7951C71.7202 40.6505 71.6183 40.4879 71.5764 40.2831Z" fill="#CAAC82"/>
<path d="M79.3616 40.5422V32.9518C79.3616 32.4458 79.2297 31.988 78.96 31.5663C78.6964 31.1446 78.3368 30.8434 77.8934 30.6687C77.4499 30.494 76.9465 30.4036 76.3892 30.4036C75.5383 30.4036 74.8551 30.6265 74.3277 31.0783C73.8004 31.5301 73.5367 32.1084 73.5367 32.8193C73.5367 33.5723 73.8423 33.9518 74.4476 33.9518C74.7412 33.9518 75.0229 33.8976 75.2806 33.7831C75.5383 33.6687 75.706 33.5301 75.784 33.3735C75.8559 33.2108 75.8978 32.9458 75.8978 32.5663C75.8978 31.8976 76.1076 31.5602 76.533 31.5602C76.8446 31.5602 77.0005 31.7831 77.0005 32.2229V33.8253C76.6229 34.0361 76.1495 34.2711 75.5742 34.5241C74.6753 34.9337 74.0701 35.3795 73.7584 35.8675C73.4468 36.3494 73.291 37.2229 73.291 38.4699C73.291 39.7229 73.4588 40.6205 73.7884 41.1747C74.118 41.7289 74.5854 42 75.1907 42C75.4604 42 75.73 41.9277 75.9817 41.7892C76.2394 41.6506 76.575 41.3313 76.9885 40.8313C77.1263 41.2892 77.3181 41.6024 77.5698 41.759C77.8155 41.9157 78.1271 41.994 78.4986 41.994C78.8042 41.994 79.0559 41.9578 79.2597 41.8795C79.4634 41.8012 79.5893 41.7169 79.6432 41.6265C79.6971 41.5362 79.7211 41.3795 79.7211 41.1566C79.7211 40.994 79.6732 40.8735 79.5773 40.7892C79.4395 40.6627 79.3735 40.5783 79.3616 40.5422ZM76.9885 39.1506C76.9885 39.8614 76.8027 40.2108 76.4371 40.2108C76.2274 40.2108 76.0776 40.0904 75.9937 39.8554C75.9098 39.6205 75.8679 39.0542 75.8679 38.1627C75.8679 36.9518 75.9218 36.1687 76.0237 35.8253C76.1255 35.4819 76.4491 35.1687 76.9885 34.8916V39.1506Z" fill="#CAAC82"/>
<path d="M87.2943 40.271V32.3373C87.2943 31.753 87.1385 31.2891 86.8389 30.9337C86.5333 30.5783 86.1737 30.4036 85.7662 30.4036C85.2149 30.4036 84.5737 30.7951 83.8426 31.5843V28.759C83.8426 28.5602 83.7527 28.4578 83.5789 28.4578H81.1759C81.056 28.4578 80.9961 28.518 80.9961 28.6325V29.2228C80.9961 29.3433 81.05 29.4217 81.1579 29.4458C81.3616 29.4879 81.4635 29.6988 81.4635 30.0722V40.2771C81.4635 40.4819 81.3976 40.6445 81.2538 40.759C81.1579 40.8433 81.098 40.9156 81.08 40.9819C81.056 41.0482 81.05 41.1988 81.05 41.4337C81.05 41.6265 81.068 41.753 81.11 41.8012C81.1459 41.8554 81.2238 41.8795 81.3317 41.8795H83.9205C84.0883 41.8795 84.1782 41.8554 84.2021 41.8012C84.2201 41.7469 84.2321 41.5301 84.2321 41.1506C84.2321 41.0482 84.1662 40.9156 84.0403 40.765C83.9145 40.6204 83.8486 40.4578 83.8486 40.2771V32.6024C84.1063 32.3494 84.328 32.2168 84.5078 32.2168C84.6216 32.2168 84.7235 32.2771 84.8014 32.3976C84.8853 32.518 84.9273 32.6506 84.9273 32.7951V40.5361C84.9273 40.9036 84.9932 41.2168 85.125 41.4819C85.2568 41.7469 85.4067 41.8795 85.5625 41.8795H87.3842C87.5041 41.8795 87.582 41.8433 87.6119 41.771C87.6479 41.6988 87.6599 41.5301 87.6599 41.265C87.6599 41.0241 87.588 40.8433 87.4441 40.7168C87.3423 40.6265 87.2943 40.4819 87.2943 40.271Z" fill="#CAAC82"/>
<path d="M36.7887 36.2409H0V36.6626H36.7887V36.2409Z" fill="#CAAC82"/>
<path d="M132 36.8373H90.6152V37.4036H132V36.8373Z" fill="#CAAC82"/>
<path d="M0.953125 22.3916V1.17471H12.8305C12.8725 1.247 12.9444 1.41568 13.0522 1.66869C13.1601 1.92773 13.262 2.27713 13.3639 2.72894C13.4597 3.18075 13.5137 3.68676 13.5137 4.247C13.5137 5.37351 13.3279 6.22894 12.9504 6.83134C12.5728 7.42773 12.0635 7.72893 11.4103 7.72893H7.47311V11.1747H11.9436C12.0215 11.2711 12.1234 11.5542 12.2552 12.0181C12.3811 12.4819 12.447 13.0663 12.447 13.7771C12.447 14.7048 12.2912 15.4518 11.9736 16.0121C11.656 16.5723 11.1766 16.8554 10.5234 16.8554H7.47311V24.6928C7.43116 24.6928 7.18546 24.8615 6.73002 25.2048C6.27458 25.5482 5.47756 25.7169 4.33297 25.7169C3.26628 25.7169 2.43929 25.4157 1.84602 24.8193C1.25275 24.2289 0.953125 23.4157 0.953125 22.3916Z" fill="#CAAC82"/>
<path d="M32.5271 24.7349C31.7181 25.494 30.5496 25.8675 29.0334 25.8675C26.5465 25.8675 25.1143 24.7711 24.7367 22.5723L24.1734 19.1265C23.9757 17.9819 23.3944 17.4036 22.4236 17.4036H22.0101V20.0783V24.8072C21.6146 25.1506 21.1471 25.4096 20.6018 25.5964C20.0565 25.7771 19.4632 25.8735 18.81 25.8735C17.8212 25.8735 17.0242 25.5903 16.413 25.0301C15.8017 24.4699 15.4961 23.6867 15.4961 22.6867V14.994V1.58435C15.9875 1.46386 16.8684 1.31928 18.1328 1.16265C19.3973 1.00603 20.6797 0.921692 21.9861 0.921692C25.2221 0.921692 27.6731 1.60242 29.3331 2.95784C30.993 4.31326 31.82 6.18675 31.82 8.58434C31.82 10.3675 31.3825 11.7651 30.5016 12.7771C29.6207 13.7891 28.4941 14.3735 27.1098 14.5181C29.1833 14.759 30.5136 16.1325 31.1069 18.6205L32.5271 24.7349ZM25.33 9.23493C25.33 8.49999 25.1262 7.95783 24.7247 7.60241C24.3172 7.24699 23.7719 7.07229 23.0828 7.07229C22.7052 7.07229 22.3517 7.12047 22.0161 7.21686V11.6867H23.0828C24.5809 11.6928 25.33 10.8735 25.33 9.23493Z" fill="#CAAC82"/>
<path d="M79.8581 24.5662C79.8401 24.5662 79.6184 24.7409 79.2049 25.0964C78.7914 25.4518 77.9285 25.6265 76.6281 25.6265C75.6633 25.6265 74.8722 25.3433 74.261 24.7831C73.6497 24.2229 73.3441 23.4397 73.3441 22.4397V19.1446V14.747C73.3441 13.2349 73.3621 12.1807 73.404 11.5964C73.1104 13.0843 72.8347 14.3434 72.589 15.3735C72.3433 16.3976 72.0617 17.512 71.7441 18.7108L70.0542 25.006C69.1073 25.4217 68.1904 25.6265 67.2975 25.6265C66.5245 25.6265 65.9013 25.4397 65.4159 25.0602C64.9305 24.6807 64.5709 24.0662 64.3372 23.2108L63.1806 18.7048C62.9829 18.0241 62.875 17.6084 62.857 17.4578C62.6413 16.5542 62.4255 15.6446 62.2218 14.7289C62.012 13.8132 61.8023 12.7711 61.5866 11.5964C61.6045 12.1807 61.6165 13.2349 61.6165 14.747V17.4578V19.3614V24.5662C61.221 24.9096 60.7536 25.1687 60.2083 25.3554C59.6629 25.5361 59.0697 25.6325 58.4165 25.6325C57.4277 25.6325 56.6307 25.3494 56.0194 24.7891C55.4082 24.2289 55.1025 23.4458 55.1025 22.4458V14.753V0.933725C56.349 0.662641 57.5535 0.530121 58.7161 0.530121C59.4052 0.530121 60.2442 0.566261 61.233 0.63855C62.2218 0.710839 62.9889 0.807219 63.5462 0.933725L66.5664 13.0241C66.9979 14.8554 67.2856 16.1626 67.4234 16.9458C67.6032 15.9699 67.8848 14.6867 68.2803 13.0964L71.3905 0.933725C73.2842 0.662641 74.8962 0.530121 76.2206 0.530121C77.4071 0.530121 78.6176 0.662641 79.8641 0.933725V14.747V24.5662H79.8581Z" fill="#CAAC82"/>
<path d="M89.4583 16.765V24.5723C89.0628 24.9157 88.5954 25.1747 88.05 25.3614C87.5047 25.5422 86.9115 25.6385 86.2583 25.6385C85.2695 25.6385 84.4725 25.3554 83.8612 24.7952C83.25 24.2349 82.9443 23.4518 82.9443 22.4518V14.759V11.5361V0.933725C84.1489 0.662641 85.2335 0.530121 86.2043 0.530121C87.1691 0.530121 88.2598 0.662641 89.4643 0.933725V7.89757V16.765H89.4583Z" fill="#CAAC82"/>
<path d="M110.577 24.8253C109.552 25.3373 108.563 25.5964 107.616 25.5964C106.807 25.5964 106.1 25.4156 105.501 25.0482C104.896 24.6807 104.368 24.0602 103.919 23.1807L101.726 18.7831C100.521 16.3915 99.6222 14.5181 99.029 13.1747C99.0469 13.6626 99.0589 14.1747 99.0589 14.7108V18.7771V24.5662C98.6634 24.9096 98.196 25.1687 97.6506 25.3554C97.1053 25.5361 96.512 25.6325 95.8588 25.6325C94.8701 25.6325 94.073 25.3494 93.4618 24.7891C92.8505 24.2289 92.5449 23.4458 92.5449 22.4458V14.753V0.933725C93.5936 0.662641 94.6004 0.530121 95.5652 0.530121C96.53 0.530121 97.5308 0.662641 98.5555 0.933725L101.516 6.9036C102.187 8.24697 102.744 9.41565 103.188 10.4036C103.631 11.3916 103.931 12.0602 104.093 12.4036C104.075 12.1807 104.063 11.8916 104.063 11.5241V0.933725C105.267 0.662641 106.352 0.530121 107.323 0.530121C108.252 0.530121 109.336 0.662641 110.583 0.933725V8.59034V24.8253H110.577Z" fill="#CAAC82"/>
<path d="M128.35 3.9036C128.35 4.9277 128.129 5.78915 127.685 6.48794C127.242 7.18674 126.606 7.53012 125.773 7.53012H123.49V18.6687V24.5662C123.095 24.9096 122.627 25.1687 122.082 25.3554C121.537 25.5361 120.943 25.6325 120.29 25.6325C119.301 25.6325 118.504 25.3494 117.893 24.7891C117.282 24.2289 116.976 23.4458 116.976 22.4458V14.753V7.53613H112.829C112.356 6.60842 112.116 5.58433 112.116 4.45783C112.116 3.45783 112.32 2.62047 112.721 1.94577C113.129 1.27107 113.722 0.939758 114.513 0.939758H127.667C128.123 1.78916 128.35 2.7771 128.35 3.9036Z" fill="#CAAC82"/>
<path d="M48.8164 0.506022C48.7146 1.48795 48.5108 2.4759 48.1632 3.45782C47.6479 4.91565 46.9168 6.15059 45.934 7.12649C44.9871 8.06625 43.6807 8.9518 42.4882 9.01204C42.3624 7.46987 42.9796 4.41565 43.5129 3.01806C43.8006 2.25902 44.1721 1.45783 44.6096 0.795185C44.7894 0.506028 44.9572 0.240957 45.107 0.0120416C44.9871 0.00601747 44.8733 0.00602409 44.7534 0C44.5856 0.186747 44.4119 0.379511 44.1961 0.614451C42.4223 2.60843 41.2597 5.69277 41.1938 8.71686C39.9953 8.84939 37.4484 4.39759 39.8455 0.132531C36.6394 0.46988 34.542 1.16265 34.542 1.16265V11.753V16.6626C34.542 22.8193 37.3765 25.8976 43.0455 25.8976C48.6906 25.8976 51.5191 22.8313 51.5191 16.6988V11.753V1.17469C50.6022 0.891555 49.7033 0.68072 48.8164 0.506022ZM43.9684 21.9337C43.9145 18.8795 42.8358 15.765 41.1818 13.759C39.0305 11.1988 39.45 11.6144 40.7923 13.9397C41.1998 14.6084 41.5414 15.4096 41.811 16.1807C42.3084 17.5903 42.8717 20.6747 42.7519 22.2289C41.6433 22.1687 40.4267 21.2771 39.5458 20.3313C38.629 19.3434 37.9518 18.0964 37.4724 16.6265C36.2918 13.012 36.8312 9.41566 37.6102 5.87349C39.1084 9.57831 43.2912 9.67469 45.1609 13.1024C47.534 17.4518 45.095 22.0663 43.9684 21.9337ZM47.8097 18.6807C47.4801 19.3795 46.2036 21.2891 45.6823 21.5181C45.9519 20.9036 46.1617 20.7048 46.4733 19C46.6291 18.1265 46.6771 16.8795 46.5512 15.9699C46.2935 14.1385 46.2216 14.9096 46.8808 13.4699C48.4449 9.15661 46.9168 13.0241 45.874 13.3193C45.2808 12.1144 45.0531 11.5904 44.1721 10.7169C44.0223 10.5723 43.5429 10.1988 43.489 10.0241C45.4546 8.84938 46.6831 8.06625 48.0554 5.67469C48.2232 6.77709 48.6187 7.76506 48.9063 9.93975C49.2958 12.9398 49.0382 16.0903 47.8097 18.6807Z" fill="#CAAC82"/>
</svg>
