<svg width="167" height="116" viewBox="0 0 167 116" fill="none" xmlns="http://www.w3.org/2000/svg">
<path d="M0.00861477 33.8719C0.111891 34.4235 0.249564 34.9665 0.301202 35.5267C0.619637 38.9053 1.44585 42.1719 2.88311 45.223C5.9814 51.8165 9.02809 58.4445 12.3846 64.9088C20.1475 79.8368 31.0776 92.2136 44.0302 102.798C53.523 110.555 64.694 114.261 76.7946 115.58C91.6577 117.191 105.721 113.977 119.628 109.21C127.839 106.4 135.068 102.056 141.609 96.4283C143.399 94.8855 144.854 93.0755 146.214 91.1793C146.79 90.3692 147.444 89.9641 148.417 89.7831C153.245 88.8695 157.849 87.206 162.419 85.465C163.478 85.0599 164.536 84.6203 165.449 83.9136C166.869 82.8103 167.359 81.2417 166.731 79.854C166.103 78.4578 164.614 77.7682 162.841 78.1561C161.223 78.5095 159.743 79.2766 158.237 79.9488C153.271 82.1467 148.15 83.7929 142.762 84.6289C141.618 84.8099 140.809 84.5341 140.008 83.767C137.659 81.5433 136.006 78.8284 134.449 76.0358C129.629 67.3824 125.214 58.5221 120.678 49.7307C113.466 35.7422 103.801 23.7101 89.9882 15.4445C83.5764 11.6091 76.7687 9.22161 69.3673 9.02338C56.8966 8.68724 44.5466 7.04102 32.1104 6.2567C25.9913 5.86885 20.1561 4.05888 14.5534 1.57661C13.5637 1.13705 12.5825 0.680232 11.5584 0.326855C9.45844 -0.405757 7.94373 0.0855394 6.61835 1.87828C5.73189 3.07632 5.09501 4.42086 4.56141 5.79989C2.08278 12.2124 0.215146 18.7542 0.309816 25.7269C0.335636 27.3128 0.387286 28.9073 0 30.476C0.00860636 31.5878 0.00861477 32.7255 0.00861477 33.8719ZM96.0901 85.0513C97.8716 85.6115 99.6703 86.12 101.383 86.9647C97.8114 89.7314 96.0729 89.8606 92.4324 87.6542C93.7663 86.8957 95.3585 86.5337 96.1159 85.0513C94.868 85.103 93.5426 85.0599 92.4582 85.6718C89.5837 87.3008 87.4579 85.5339 85.0568 84.3359C87.4837 83.2585 89.7558 82.8103 92.1914 83.9136C93.4135 84.4738 94.7905 84.6893 96.0901 85.0513ZM103.173 81.9743C103.001 81.9829 102.837 82.0346 102.683 82.0002C90.255 79.4058 78.7052 74.5965 67.8182 68.0978C67.1641 67.7099 66.6305 67.2272 66.269 66.555C60.4081 55.7985 54.7795 44.9386 52.3611 32.76C51.0959 26.3734 50.4333 19.9264 50.6227 13.4105C50.6485 12.5572 50.4247 11.5229 51.9997 11.7556C56.5697 12.4365 61.1827 12.5227 65.7871 12.5744C75.4176 12.6865 84.1272 15.41 91.8988 21.2106C93.4737 22.3914 94.1967 23.2964 93.5168 25.3305C92.725 27.6576 92.9315 27.6921 90.9004 26.3389C85.8399 22.9689 80.9343 19.323 75.125 17.2717C74.3762 17.0045 73.6016 16.8063 72.827 16.6598C72.3623 16.5736 71.8718 16.7201 71.8115 17.3062C71.7685 17.7889 72.1558 17.9613 72.5603 18.0819C73.4295 18.3319 74.316 18.5474 75.1594 18.8749C81.3302 21.2537 86.5886 25.1667 91.9848 28.8642C92.7766 29.4072 92.6906 30.045 92.5873 30.8035C91.5976 38.1383 91.7008 45.4557 92.8713 52.7646C94.4549 62.6161 97.0712 72.1056 102.536 80.6039C102.812 81.0004 103.199 81.3796 103.173 81.9743ZM43.9011 66.9859C42.7564 66.736 41.6118 66.5205 40.4758 66.2188C38.7717 65.7706 37.0848 65.2621 35.3894 64.7967C34.8902 64.6588 34.2878 64.5123 34.0554 65.1242C33.7714 65.8741 34.4254 66.0809 34.9504 66.2964C35.3205 66.4429 35.7078 66.5464 36.0865 66.6584C41.3192 68.2529 46.6465 69.5113 52.0771 70.0112C55.7262 70.3387 58.2134 72.4762 60.9933 74.3982C60.0036 74.5965 59.0483 74.5792 58.1016 74.6051C57.4561 74.6223 56.7245 74.7171 56.7675 75.5532C56.8106 76.4064 57.5938 76.3547 58.2135 76.3461C59.4614 76.3203 60.7265 76.3547 61.9658 76.1996C63.8678 75.9582 65.4858 76.5099 67.1469 77.4063C70.641 79.3024 74.2299 81.0262 77.7757 82.8362C78.2318 83.0689 78.7998 83.1809 79.1441 83.7498C76.7171 84.6376 74.4967 85.1633 72.1988 83.3964C70.6841 82.2329 68.8595 81.4744 67.1382 80.5953C66.1915 80.1126 65.2535 79.5696 63.9453 79.4317C66.5186 81.8019 69.3415 83.4481 72.5086 85.4133C69.5997 85.8528 67.2501 86.2234 64.892 86.5682C60.322 87.2405 55.709 87.2663 51.1046 87.275C50.4333 87.275 49.5296 87.2319 49.4866 88.1196C49.4436 89.1108 50.3731 88.9384 51.0272 88.947C58.0413 89.0505 65.0469 88.8177 71.8717 87.137C74.9356 86.3786 77.0184 87.7576 79.3335 89.1194C79.0495 89.559 78.688 89.5504 78.361 89.6279C74.4279 90.5243 70.4689 91.2742 66.4669 91.8172C65.6837 91.9206 64.2293 91.6792 64.41 92.9807C64.5821 94.2391 65.9075 93.6702 66.7165 93.5668C71.4586 92.9721 76.1577 92.1274 80.7707 90.8691C82.9653 90.2744 84.3251 91.55 86.2788 92.3946C77.965 95.0924 66.4067 95.8681 56.6815 94.6356C50.4591 93.8426 44.3055 92.8083 38.5049 90.2916C36.6889 89.5073 34.7353 88.8608 33.3669 87.3353C27.7039 81.009 22.2991 74.493 18.0906 67.0462C13.7702 59.4012 10.4395 51.2735 6.5322 43.4217C6.08467 42.5339 5.84375 41.5427 5.41344 40.3533C8.94204 43.3613 12.0404 46.4211 15.5518 48.912C21.9119 53.4197 28.5301 57.6257 35.8714 60.3321C39.4258 61.6594 41.388 64.5036 43.9011 66.9859ZM113.811 84.2669C111.366 84.4393 109.679 83.7498 108.552 81.776C107.743 80.3453 106.719 79.0352 105.85 77.6303C97.7338 64.4778 95.152 49.9807 95.5909 34.7682C95.6081 34.0356 95.5823 33.2858 96.004 32.6221C96.6495 32.6738 97.1056 33.5702 97.8458 33.0444C97.8802 31.5878 95.8319 31.0535 96.3138 29.4245C96.7011 28.1058 96.7098 26.6664 97.5187 25.2874C98.6548 26.3044 99.7477 27.1404 100.669 28.123C107.425 35.3371 113.57 43.0338 118.096 51.8596C121.685 58.8496 125.3 65.8138 129.526 72.4504C132.237 76.6995 134.328 81.3451 138.029 84.922C137.426 85.4219 136.893 85.3271 136.402 85.3702C132.03 85.8097 127.658 85.7839 123.286 85.4133C115.497 84.7582 115.437 84.7841 111.693 77.8717C107.889 70.8472 104.834 63.5039 102.932 55.7123C102.674 54.6522 102.562 53.4714 101.452 52.6181C100.91 53.7558 101.047 54.816 101.262 55.8588C101.762 58.2549 102.459 60.5993 103.285 62.9092C105.962 70.3559 109 77.6303 113.811 84.2669ZM16.0078 6.46357C22.9101 8.81655 29.9243 10.0577 37.102 10.4628C40.4499 10.6524 43.7978 10.7472 47.1371 11.1437C48.1354 11.2643 48.4452 11.566 48.3936 12.6261C47.4555 29.6055 50.8722 45.7402 57.8606 61.1681C57.9724 61.4094 58.179 61.6594 57.8519 61.918C57.7056 61.8576 57.525 61.8232 57.3959 61.737C55.8984 60.7027 54.4352 59.6253 52.9205 58.6169C41.431 50.9719 34.3911 39.9827 29.3219 27.4421C27.2994 22.4517 25.4146 17.3579 21.6966 13.2381C19.7171 11.0575 17.9012 8.73036 16.0078 6.46357ZM105.342 95.2561C98.8097 98.1866 92.3291 100.884 85.4698 102.591C84.3166 102.875 83.1288 103.056 81.9584 103.289C81.4678 103.384 81.0547 103.599 81.1322 104.168C81.2097 104.72 81.683 104.892 82.1649 104.832C83.0083 104.737 83.8518 104.608 84.6866 104.427C92.2344 102.798 99.3346 99.9017 106.28 96.6352C108.199 95.7302 109.705 96.1353 111.547 96.9282C110.902 97.2816 110.428 97.5746 109.92 97.8246C105.987 99.7638 101.899 101.307 97.622 102.324C97.011 102.47 96.2535 102.634 96.4687 103.479C96.6494 104.185 97.3552 104.047 97.9232 103.97C98.2589 103.918 98.5945 103.841 98.9216 103.763C103.285 102.651 107.588 101.238 111.444 98.9192C113.845 97.4798 116.031 97.4884 118.458 98.3503C118.381 98.8502 117.916 98.9105 117.589 99.0657C114.585 100.557 111.607 102.108 108.543 103.47C101.874 106.444 94.9627 108.65 87.7419 109.839C87.0534 109.951 85.9345 109.951 86.055 110.874C86.2099 112.072 85.5903 111.882 84.9276 111.891C67.9903 112.02 53.0238 107.004 40.7942 94.8855C40.6221 94.7131 40.2864 94.5924 40.5704 94.1098C47.9116 96.3162 55.5369 97.1178 63.3945 98.109C62.8867 98.5055 62.6028 98.7295 62.2499 99.014C63.274 99.4622 64.2207 99.3846 65.1674 99.2898C67.1985 99.1002 69.2124 98.6865 71.278 98.7899C79.4798 99.2295 87.2686 96.9799 95.0401 94.8597C98.4913 93.9288 101.822 92.4205 105.342 95.2561ZM21.1716 23.8739C20.9048 22.4862 20.1733 21.6502 19.3902 20.84C16.6447 18.0302 13.9595 15.1687 11.6358 11.9797C11.283 11.4884 10.9301 10.7299 10.1899 11.1867C9.35509 11.6953 9.85433 12.4193 10.2674 12.945C11.6014 14.643 12.9699 16.3237 14.3727 17.9613C15.7841 19.6075 16.1456 20.7452 15.8443 23.1757C15.0353 22.4776 15.0697 21.2192 14.0628 20.5728C13.8218 23.2188 14.8374 25.5029 15.4399 28.192C14.5448 27.4938 13.9252 27.0026 13.2969 26.5285C12.8063 26.1579 12.2039 25.5804 11.6875 26.2872C11.1883 26.9767 11.9198 27.4076 12.3932 27.7869C13.5034 28.6746 14.6739 29.4934 15.7497 30.4157C17.4968 31.924 17.5915 34.2339 18.4521 36.1817C18.4951 36.2852 18.3832 36.5265 18.2713 36.6127C17.2299 37.4487 17.9184 38.0262 18.607 38.4658C20.552 39.7241 20.6208 41.9047 21.4126 43.7492C17.8066 41.8616 14.5792 39.5431 11.3776 37.1902C10.8096 36.7765 10.0781 35.9835 9.48423 36.8195C8.899 37.6642 9.94039 38.0779 10.474 38.4916C13.4088 40.7498 16.421 42.9045 19.6225 44.7576C21.6795 45.947 23.5901 47.1623 24.3647 49.5842C24.4765 49.9376 24.7605 50.3168 25.079 50.5237C25.733 50.9547 26.2667 50.8512 26.4216 49.9549C26.4818 49.6015 25.9826 49.2222 26.4732 48.8861C30.5526 50.6443 32.1706 52.1354 33.8058 55.6606C33.7025 55.6865 33.5735 55.7468 33.496 55.7209C22.7553 51.6269 13.426 45.3868 5.40482 37.1557C4.64746 36.38 4.28601 35.4922 4.24298 34.4062C4.06225 30.1312 4.13972 25.8562 4.47537 21.5985C4.90569 16.0996 6.6355 10.9023 8.81291 5.86023C9.11413 5.17072 9.36373 4.60188 10.2244 5.38621C15.414 10.1611 20.1647 15.3325 22.9101 21.9001C24.3732 25.408 25.8879 28.8987 27.3252 32.4239C31.3272 42.2409 37.1451 50.7564 45.4503 57.4533C46.9305 58.6514 48.4194 59.8494 49.8997 61.0475C46.5948 60.5389 43.5224 59.3668 40.3725 58.4876C37.2398 57.6085 35.9316 55.0831 34.0554 52.6526C34.9075 52.6526 35.4669 52.6526 36.1812 52.6526C35.5013 51.6442 34.6234 51.1012 33.7112 50.7047C32.446 50.1531 31.594 49.2481 30.9227 48.0845C29.0982 44.9386 27.2305 41.8185 25.406 38.664C25.1908 38.2934 24.6572 37.9142 25.0617 37.3281C25.8879 37.5608 26.5507 38.1813 27.5834 38.1813C26.8691 36.6472 25.6814 35.6905 24.399 34.9147C22.3421 33.6564 21.6881 31.5706 20.6983 29.2952C21.1631 29.5538 21.3438 29.6486 21.5245 29.752C22.1098 30.0795 22.8068 30.6828 23.3146 29.9416C23.7535 29.3038 22.9791 28.847 22.5487 28.4333C21.6365 27.5714 20.7069 26.744 19.7602 25.9166C18.5639 24.865 17.996 23.5377 17.798 21.8484C18.934 22.581 19.6397 23.6498 21.1716 23.8739ZM139.087 91.3431C135.18 94.6873 131.695 98.5141 127.064 100.833C117.382 105.676 107.158 108.883 96.5376 110.882C93.818 111.391 91.064 111.684 88.2841 111.667C91.9849 110.796 95.6942 110.003 99.3174 108.857C111.392 105.03 122.322 98.8502 133.037 92.274C134.982 91.0759 136.919 91.0587 139.087 91.3431ZM62.0432 69.5975C61.7076 69.7009 61.5527 69.7957 61.4236 69.7698C56.7159 69.0803 52.0082 68.3736 47.3092 67.6668C47.0854 67.6323 46.7239 67.572 46.6895 67.4513C46.1473 65.6241 44.2109 64.9518 43.1265 63.1505C47.662 64.6243 51.9652 65.831 56.3717 66.5291C58.6438 66.8825 60.2015 68.2357 62.0432 69.5975ZM85.8743 81.8709C83.3957 83.1982 82.5092 83.2671 80.4781 82.2587C77.3282 80.7073 74.1869 79.1387 71.0456 77.57C70.1161 77.1046 69.2124 76.5961 68.1625 76.0272C70.7874 74.8292 70.7873 74.8378 72.827 75.9152C73.5242 76.2858 74.2386 76.6478 74.9443 77.0012C78.4643 78.7767 82.0015 80.5177 85.8743 81.8709ZM116.823 96.1611C121.023 92.8342 125.197 90.1968 130.911 91.5844C128.407 93.041 125.92 94.2735 123.656 95.8422C121.393 97.4109 119.258 96.5834 116.823 96.1611ZM103.715 92.274C106.805 89.2142 110.368 88.9815 114.232 90.8949C110.841 92.5929 107.631 95.4544 103.715 92.274ZM77.7843 86.2062C81.1494 84.3445 84.0326 85.3357 86.735 87.2836C83.5334 89.2487 80.6158 88.4989 77.7843 86.2062ZM110.678 94.5407C114.069 93.4634 116.496 90.5243 120.696 91.4896C118.759 92.6877 117.098 93.6013 115.566 94.7045C113.983 95.8336 112.537 95.463 110.678 94.5407ZM93.2672 90.2916C89.7385 92.024 87.3976 91.8602 85.5128 89.8262C88.1205 88.5764 90.7283 88.042 93.2672 90.2916ZM22.8069 41.5686C25.8965 42.6029 27.2478 45.111 28.556 47.8518C25.2511 46.9296 23.4007 44.8869 22.8069 41.5686ZM68.653 73.6915C65.1846 75.217 62.7662 73.1743 60.2618 71.4591C63.1621 71.7177 66.2174 71.373 68.653 73.6915ZM19.5881 33.5357C22.127 34.9492 22.5917 37.6728 24.2011 40.0603C20.6122 38.9743 20.552 35.9663 19.5881 33.5357ZM16.5157 25.5287C16.6448 25.4598 16.7824 25.3994 16.9115 25.3305C17.6947 27.0801 18.4693 28.8211 19.2524 30.5708C19.1061 30.6397 18.9598 30.7087 18.8221 30.769C17.3504 29.3641 17.3505 27.2525 16.5157 25.5287Z" fill="#ECECEC"/>
<path d="M58.4029 18.7456C57.3099 21.1417 57.6111 23.3826 57.8005 25.5374C58.6267 34.9579 60.1414 44.2578 62.9126 53.3163C64.1605 57.4017 65.9162 61.2888 67.9818 65.0295C68.1969 65.4259 68.4465 65.8138 68.7305 66.1585C68.9113 66.3826 69.2125 66.4688 69.5051 66.3223C69.858 66.1413 69.9613 65.831 69.8408 65.469C69.7547 65.2018 69.6256 64.9433 69.4879 64.6933C64.8663 56.5656 62.6287 47.6709 61.0537 38.552C60.0726 32.8807 59.3496 27.1922 59.1 21.452C59.0656 20.6073 58.9967 19.7627 58.4029 18.7456Z" fill="#ECECEC"/>
<path d="M64.3068 25.4943C64.7027 29.5797 65.2192 33.5272 66.2175 37.3971C66.3724 38.0004 66.5962 38.5865 66.8544 39.1554C67.0781 39.638 67.4482 40.0776 68.0507 39.8018C68.6445 39.5346 68.567 39.0174 68.3777 38.4831C66.8888 34.2598 66.5187 29.8296 65.9765 25.4253C65.8818 24.6755 66.2346 23.5895 65.0728 23.3309C64.6597 23.2361 64.2638 24.4859 64.3068 25.4943Z" fill="#ECECEC"/>
<path d="M89.584 60.0305C89.1106 61.1251 89.3258 62.2284 89.7045 63.2885C91.1418 67.3739 93.1729 71.1921 94.9888 75.1137C95.2384 75.6567 95.5999 76.1652 96.2884 75.8377C96.8822 75.5533 96.7962 74.9672 96.5638 74.4931C94.3778 69.9337 92.295 65.3312 90.3586 60.6597C90.2467 60.3839 90.0918 60.0219 89.584 60.0305Z" fill="#ECECEC"/>
<path d="M86.4417 35.544C85.3315 37.9573 85.9426 40.2931 86.1319 42.5685C86.3385 45.0593 86.7601 47.533 87.1043 50.0066C87.1818 50.5324 87.4056 51.0581 88.0597 50.9806C88.7482 50.903 88.7999 50.3169 88.7052 49.7998C87.9737 45.7661 87.7843 41.6635 87.2421 37.6126C87.156 36.9575 87.0528 36.2508 86.4417 35.544Z" fill="#ECECEC"/>
<path d="M71.9061 19.5385C71.0885 20.2281 71.0024 21.09 70.9937 21.9346C70.9593 25.0633 70.9508 28.1834 70.9594 31.312C70.9594 31.9585 70.8389 32.8893 71.8114 32.8721C72.7495 32.8548 72.6462 31.9671 72.6462 31.2948C72.6548 28.3385 72.6634 25.3822 72.6462 22.4345C72.6462 21.4692 72.586 20.5039 71.9061 19.5385Z" fill="#ECECEC"/>
<path d="M121.203 61.9094C121.065 60.8837 120.609 60.2287 120.153 59.6167C115.118 52.8853 110.075 46.1625 104.989 39.4742C104.498 38.8364 103.904 37.4229 102.992 38.1383C101.951 38.9398 103.362 39.6725 103.818 40.293C108.311 46.3608 112.855 52.394 117.399 58.4273C118.406 59.7546 119.43 61.0906 121.203 61.9094Z" fill="#ECECEC"/>
<path d="M113.75 62.4955C113.681 64.1503 114.128 65.3828 114.593 66.5981C116.409 71.3385 118.647 75.8721 121.255 80.2247C121.461 80.5608 121.676 80.9056 121.943 81.1986C122.227 81.5175 122.606 81.6899 123.002 81.4141C123.398 81.1469 123.372 80.7332 123.225 80.3367C123.148 80.1212 123.036 79.923 122.916 79.7334C120.265 75.4067 118.122 70.8214 116.142 66.1499C115.617 64.9088 114.998 63.7021 113.75 62.4955Z" fill="#ECECEC"/>
<path d="M113.682 75.4756C114.37 75.3377 114.637 74.8809 114.396 74.4586C113.449 72.7951 112.744 70.9593 111.246 69.6664C110.996 69.4509 110.661 69.2355 110.334 69.4768C110.067 69.675 110.205 70.0198 110.291 70.2698C110.919 72.0539 111.9 73.6311 113.053 75.1136C113.217 75.3118 113.527 75.3894 113.682 75.4756Z" fill="#ECECEC"/>
<path d="M42.215 15.729C41.3113 16.9788 41.5523 18.2113 41.7502 19.3576C43.4457 28.985 45.4423 38.552 48.5062 47.8519C49.0398 49.4722 49.625 51.0753 50.5631 52.5233C50.8644 52.9801 51.2688 53.3421 51.8282 52.9543C52.3102 52.6268 52.1209 52.1614 51.923 51.7304C48.119 43.6803 46.6644 34.9579 44.7194 26.382C44.0395 23.3913 43.5834 20.3488 43.0412 17.3321C42.9379 16.7805 42.7572 16.2634 42.215 15.729Z" fill="#ECECEC"/>
<path d="M38.2817 23.8654C39.0993 27.4853 39.7792 31.3552 41.2165 35.0183C41.4058 35.501 41.7759 35.9664 42.3869 35.7509C42.998 35.5441 43.0152 35.0183 42.8086 34.4753C41.466 30.8985 40.7947 27.1406 39.8997 23.4517C39.7792 22.9432 39.719 22.1416 38.9961 22.2536C38.3592 22.3398 38.3419 23.081 38.2817 23.8654Z" fill="#ECECEC"/>
<path d="M36.6885 24.4341C35.2943 26.3475 36.7918 32.286 38.186 33.9064C38.4528 34.2167 38.7627 34.4752 39.2102 34.2684C39.5889 34.0874 39.6922 33.6737 39.5201 33.3979C37.8418 30.726 37.9365 27.5283 36.9295 24.6582C36.8951 24.572 36.766 24.5117 36.6885 24.4341Z" fill="#ECECEC"/>
</svg>
